<svg version="1" xmlns="http://www.w3.org/2000/svg" width="1033.333" height="1033.333" viewBox="0 0 775.000000 775.000000"><path d="M61 1.5c-15.8 3.3-26.8 9.2-38.6 20.9-7.7 7.7-9.8 10.5-13.8 18.6C-.4 59.5.5 21.8.5 387.5s-.9 328 8.1 346.5c4 8 6.1 10.9 13.8 18.6 7.7 7.7 10.6 9.8 18.6 13.7 18.5 9.1-19.6 8.2 342 8.5 240.3.2 322.4 0 328-.9 24-3.7 45-18.9 55.4-40 9-18.3 8.1 19.2 8.1-346.4 0-365.7.9-328-8.1-346.5-4-8-6.1-10.9-13.8-18.6-7.7-7.7-10.6-9.8-18.6-13.7C715.4-.4 753.9.5 390 .3 124.8.2 66.3.4 61 1.5zM418.5 11c39.7 2.5 75.4 9.6 103.6 20.5 81 31.5 133.3 96.2 152.8 189 4.6 22.1 8.9 55.3 7.7 60.1l-.6 2.4H516.2l-.7-6.8c-3.3-37.1-7.9-57.4-17.4-77.7-11.8-25.3-28.5-40-55.1-48.9-17.7-5.9-26.4-7-52.5-7-21.8 0-23.5.1-33 2.7-12 3.2-27.6 10.8-36.7 17.7-23.7 18-42.5 49.7-50.8 85.5-6.1 26.4-7 44.1-7 138.5 0 77 .7 101.5 3.5 118.9 9.8 60.9 42.3 105.2 88.4 120.5 16.7 5.5 28 6.9 50.6 6.3 19.8-.6 30.2-2.2 43.5-6.7 17.3-5.9 32.3-17.2 41.7-31.2 12.3-18.6 20.5-47.8 23.4-83.6l1.3-15.2h165.5l.6 2.1c1.4 4.3-2.2 40.4-6.1 61.9-18.1 98.8-74.8 164-165.9 190.6-54.6 15.9-129.6 18.7-187.6 6.9-86.4-17.5-158.2-71.1-197-147-12.3-23.9-20.2-47.1-25.9-75.5-6.1-30.5-6.3-33.8-6.7-135-.6-112.1.2-129.8 7.3-164.5 15.7-77.8 61.4-143.8 127-183.7C279 20.1 343.7 6.3 418.5 11zm104.8 288.1c6.6 1.4 6.4.5 4.1 15.3l-1.6 10.3-12.7-.1c-11.4-.1-13.1.1-17.4 2.3-2.8 1.4-6.1 4.1-7.8 6.4-4.8 6.6-5.9 12.2-5.9 29.9V379l18.3.2 18.2.3v24l-18.2.3-18.3.2v80h-33v-80h-28v-25h28v-16.8c0-10.8.6-19.1 1.5-23.6 4.4-20.8 18.8-35.4 39.5-40.1 7.4-1.7 24-1.4 33.3.6zm103.3-1c14.9 2.6 25.9 7.7 35.4 16.5 10.2 9.5 16 21.4 16 33v5.4h-32v-3.3c0-4.9-4.5-13.1-9.7-17.7-15.5-13.6-46.2-11.2-55.8 4.4-2.7 4.4-3 5.8-3 12.6 0 6.6.4 8.2 2.7 11.8 3.9 5.8 13.7 10.3 31.8 14.6 29.4 7 45.2 13.5 55.8 23.2 18.2 16.4 18.2 46.4.1 64.5-13.4 13.4-30.6 19.2-56.9 19.3-13.1 0-16.8-.3-23.9-2.2-14.2-3.8-24.8-10-33.7-19.3-8.7-9.3-12.9-18.9-13.6-30.9l-.3-5.5 15.7-.3 15.6-.3 1.2 5.8c3.9 19.2 22 29.5 46.6 26.4 14.2-1.7 22.4-5.8 27-13.6 3.3-5.7 3.4-16.2.1-22-4.8-8.5-12.1-12.1-38.8-19-28.4-7.4-41.2-13.2-51-22.9-15.4-15.4-15.7-41.4-.6-59.1 8.9-10.4 23.2-18.2 38.4-20.9 9.5-1.7 24.8-2 32.9-.5z"/></svg>